<?xml version="1.0" encoding="UTF-8"?>
<svg width="32px" height="32px" viewBox="0 0 32 32" version="1.1" xmlns="http://www.w3.org/2000/svg" xmlns:xlink="http://www.w3.org/1999/xlink">
    <!-- Generator: Sketch 62 (91390) - https://sketch.com -->
    <title>Group 15</title>
    <desc>Created with Sketch.</desc>
    <g id="Page-1" stroke="none" stroke-width="1" fill="none" fill-rule="evenodd">
        <g id="Desktop-HD" transform="translate(-704.000000, -80.000000)" fill-rule="nonzero">
            <g id="Group-15" transform="translate(704.000000, 80.000000)">
                <path d="M26.6104615,32 L5.38338462,32 C2.41162923,31.996615 0.00339125675,29.5928148 0,26.6265356 L0,5.37346437 C0.00339125675,2.40718519 2.41162923,0.0033850075 5.38338462,0 L26.6104615,0 C29.5846199,0 31.9966041,2.40478861 32,5.37346437 L32,26.6265356 C31.9966041,29.5952114 29.5846199,32 26.6104615,32 Z M5.38338462,0.98034398 C2.95585971,0.987098738 0.990024556,2.95040939 0.984615385,5.37346437 L0.984615385,26.6265356 C0.988004998,29.0534217 2.95817203,31.0199582 5.38953846,31.0233415 L26.6104615,31.0233415 C29.0421087,31.0206334 31.0126715,29.0537018 31.0153846,26.6265356 L31.0153846,5.37346437 C31.0126715,2.94629816 29.0421087,0.979366614 26.6104615,0.976658477 L5.38338462,0.98034398 Z" id="Shape" fill="#2D3840"></path>
                <path d="M28.5714286,9.47657146 C28.5617149,11.3696796 27.8890415,12.8113448 26.6444744,14.0020717 C25.7523063,14.8673426 24.6185826,15.4330267 23.3976721,15.6220999 C22.8719183,15.7069761 22.3400936,15.6995956 21.8106972,15.7340381 C20.7061122,15.8007198 19.6137173,16.0039622 18.5578238,16.3392422 C17.1687655,16.788225 16.3722425,17.7809074 16.0674754,19.2065815 C15.8343511,20.2953785 15.6809429,21.4001353 15.6085033,22.5118326 C15.4992243,24.2425689 14.8799762,25.7543492 13.6099107,26.9561469 C12.7125099,27.8175525 11.5650775,28.3631863 10.3376099,28.5122105 C8.67656811,28.7287063 7.15394651,28.3559891 5.82559879,27.3214836 C4.49725107,26.2869781 3.72986921,24.8920563 3.48702685,23.2092935 C3.05962429,20.2398569 5.01086267,17.1547917 8.19695445,16.4068972 C8.72203128,16.295721 9.25612815,16.2339538 9.79242876,16.2223837 C11.0399995,16.1733576 12.2795076,15.996972 13.4921321,15.6959053 C14.878762,15.3477899 15.7165682,14.4547447 16.0929738,13.0807345 C16.3854604,12.0348002 16.5056615,10.9471554 16.4487379,9.86158955 C16.3088578,6.77289187 18.4541617,4.05912087 21.4598929,3.52256845 C24.465624,2.98601602 27.3973139,4.79349392 28.3079446,7.74460508 C28.390013,8.01478992 28.4505136,8.29121997 28.4888622,8.5712254 C28.5372461,8.87068036 28.5648359,9.17320485 28.5714286,9.47657146 L28.5714286,9.47657146 Z" id="Path" fill="#1D7CBF"></path>
            </g>
        </g>
    </g>
</svg>