<?xml version="1.0" encoding="UTF-8"?>
<svg width="88px" height="33px" viewBox="0 0 88 33" version="1.1" xmlns="http://www.w3.org/2000/svg" xmlns:xlink="http://www.w3.org/1999/xlink">
    <!-- Generator: Sketch 62 (91390) - https://sketch.com -->
    <title>LOGO</title>
    <desc>Created with Sketch.</desc>
    <g id="Page-1" stroke="none" stroke-width="1" fill="none" fill-rule="evenodd">
        <g id="Desktop-HD-Copy" transform="translate(-30.000000, -16.000000)" fill="#4F566B" fill-rule="nonzero">
            <g id="LOGO" transform="translate(30.000000, 16.000000)">
                <path d="M26.5697042,-5.15143483e-14 C29.5393072,-5.15143483e-14 31.9475971,2.40478861 31.9509878,5.37346437 L31.9509878,26.6265356 C31.9475971,29.5952114 29.5393072,32 26.5697042,32 L5.37513926,32 C2.4079355,31.996615 0.0033860626,29.5928148 -2.13162821e-14,26.6265356 L-2.13162821e-14,5.37346437 C0.0033860626,2.40718519 2.4079355,0.0033850075 5.37513926,-5.15143483e-14 L26.5697042,-5.15143483e-14 Z M26.5697042,0.976658477 L5.37513926,0.98034398 C2.95133242,0.987098738 0.988508204,2.95040939 0.983107318,5.37346437 L0.983107318,26.6265356 C0.98649174,29.0534217 2.95364121,31.0199582 5.38128368,31.0233415 L26.5697042,31.0233415 C28.9976269,31.0206334 30.9651715,29.0537018 30.9678805,26.6265356 L30.9678805,5.37346437 C30.9651715,2.94629816 28.9976269,0.979366614 26.5697042,0.976658477 Z M28.2645873,7.74460508 C28.34653,8.01478992 28.4069379,8.29121997 28.4452278,8.5712254 C28.4935376,8.87068036 28.5210852,9.17320485 28.5276677,9.47657146 C28.5179689,11.3696796 27.8463258,12.8113448 26.603665,14.0020717 C25.7128633,14.8673426 24.580876,15.4330267 23.3618355,15.6220999 C22.836887,15.7069761 22.3058768,15.6995956 21.7772913,15.7340381 C20.6743981,15.8007198 19.5836764,16.0039622 18.5294001,16.3392422 C17.1424693,16.788225 16.3471663,17.7809074 16.042866,19.2065815 C15.8100988,20.2953785 15.6569255,21.4001353 15.5845969,22.5118326 C15.4754852,24.2425689 14.8571856,25.7543492 13.5890653,26.9561469 C12.6930391,27.8175525 11.5473641,28.3631863 10.3217765,28.5122105 C8.66327882,28.7287063 7.14298931,28.3559891 5.81667613,27.3214836 C4.49036295,26.2869781 3.72415643,24.8920563 3.48168602,23.2092935 C3.05493808,20.2398569 5.00318788,17.1547917 8.18439975,16.4068972 C8.70867235,16.295721 9.24195119,16.2339538 9.77743039,16.2223837 C11.0230903,16.1733576 12.2606999,15.996972 13.4714672,15.6959053 C14.8559733,15.3477899 15.6924962,14.4547447 16.0683254,13.0807345 C16.3603639,12.0348002 16.4803809,10.9471554 16.4235445,9.86158955 C16.2838786,6.77289187 18.4258968,4.05912087 21.4270243,3.52256845 C24.4281517,2.98601602 27.3553514,4.79349392 28.2645873,7.74460508 Z M23.4212673,18.2857143 C26.2650357,18.2869523 28.5157569,20.5314175 28.5276677,23.4261928 C28.5289296,24.7903473 27.9889844,26.0990632 27.0267454,27.0641141 C26.0645063,28.0291649 24.7588936,28.5714286 23.3974501,28.5714286 C20.5977435,28.5809452 18.2672348,26.2517608 18.2577073,23.4405115 C18.2570624,22.0698761 18.8014823,20.7554719 19.7705277,19.7880793 C20.7395731,18.8206867 22.0533682,18.2800453 23.4212673,18.2857143 Z M12.1891515,4.93500624 C13.6581835,6.40629023 14.0972772,8.61915723 13.3015757,10.5412055 C12.5058742,12.4632538 10.6321801,13.7157208 8.55465564,13.7142857 C5.75747737,13.7202349 3.42927282,11.3896533 3.42332013,8.57507375 C3.42187715,6.49436447 4.67242699,4.61779797 6.59153331,3.82087669 C8.51063964,3.02395541 10.7201195,3.46372224 12.1891515,4.93500624 Z" id="Combined-Shape"></path>
                <path d="M46.512,32.168 C47.728,32.168 48.76,31.948 49.608,31.508 C50.456,31.068 51.096,30.484 51.528,29.756 C51.96,29.028 52.176,28.232 52.176,27.368 C52.176,26.28 51.936,25.4 51.456,24.728 C50.976,24.056 50.396,23.552 49.716,23.216 C49.036,22.88 48.152,22.52 47.064,22.136 C46.28,21.88 45.66,21.648 45.204,21.44 C44.748,21.232 44.372,20.964 44.076,20.636 C43.78,20.308 43.632,19.896 43.632,19.4 C43.632,18.776 43.824,18.3 44.208,17.972 C44.592,17.644 45.096,17.48 45.72,17.48 C46.44,17.48 47.008,17.676 47.424,18.068 C47.84,18.46 48.096,18.96 48.192,19.568 L48.192,19.568 L51.84,19.568 C51.696,18.128 51.092,16.976 50.028,16.112 C48.964,15.248 47.536,14.816 45.744,14.816 C44.016,14.816 42.628,15.236 41.58,16.076 C40.532,16.916 40.008,18.064 40.008,19.52 C40.008,20.576 40.244,21.432 40.716,22.088 C41.188,22.744 41.76,23.244 42.432,23.588 C43.104,23.932 43.968,24.28 45.024,24.632 C45.84,24.904 46.48,25.144 46.944,25.352 C47.408,25.56 47.792,25.836 48.096,26.18 C48.4,26.524 48.552,26.96 48.552,27.488 C48.552,28.08 48.364,28.564 47.988,28.94 C47.612,29.316 47.072,29.504 46.368,29.504 C45.584,29.504 44.956,29.276 44.484,28.82 C44.012,28.364 43.736,27.792 43.656,27.104 L43.656,27.104 L40.056,27.104 C40.136,28.128 40.46,29.024 41.028,29.792 C41.596,30.56 42.352,31.148 43.296,31.556 C44.24,31.964 45.312,32.168 46.512,32.168 Z M62.328,32.144 C64.44,32.144 66.192,31.6 67.584,30.512 C68.976,29.424 69.896,27.944 70.344,26.072 L70.344,26.072 L66.792,26.072 C66.424,26.984 65.852,27.704 65.076,28.232 C64.3,28.76 63.368,29.024 62.28,29.024 C61.384,29.024 60.576,28.8 59.856,28.352 C59.136,27.904 58.576,27.264 58.176,26.432 C57.776,25.6 57.576,24.632 57.576,23.528 C57.576,22.408 57.776,21.432 58.176,20.6 C58.576,19.768 59.136,19.128 59.856,18.68 C60.576,18.232 61.384,18.008 62.28,18.008 C63.368,18.008 64.3,18.272 65.076,18.8 C65.852,19.328 66.424,20.048 66.792,20.96 L66.792,20.96 L70.344,20.96 C69.896,19.088 68.976,17.608 67.584,16.52 C66.192,15.432 64.44,14.888 62.328,14.888 C60.696,14.888 59.264,15.252 58.032,15.98 C56.8,16.708 55.844,17.728 55.164,19.04 C54.484,20.352 54.144,21.848 54.144,23.528 C54.144,25.192 54.484,26.68 55.164,27.992 C55.844,29.304 56.804,30.324 58.044,31.052 C59.284,31.78 60.712,32.144 62.328,32.144 Z M76.272,32 L76.272,24.872 L81.984,24.872 L81.984,22.28 L76.272,22.28 L76.272,17.744 L83.4,17.744 L83.4,15.056 L72.888,15.056 L72.888,32 L76.272,32 Z" id="SCF"></path>
                <path d="M41.5325516,8.64454684 L41.5325516,4.64721029 L45.9155414,4.64721029 L45.9155414,8.64454684 L47.0418963,8.64454684 L47.0418963,9.62785407e-13 L45.9155414,9.62785407e-13 L45.9155414,3.73983941 L41.5325516,3.73983941 L41.5325516,9.62785407e-13 L40.4184397,9.62785407e-13 L40.4184397,8.64454684 L41.5325516,8.64454684 Z M51.5840448,8.73037922 C52.2370042,8.73037922 52.7899792,8.56688898 53.2429697,8.23990848 C53.6959603,7.91292799 54.0122375,7.47559157 54.1918013,6.92789924 L54.1918013,6.92789924 L54.1918013,8.64454684 L55.3059132,8.64454684 L55.3059132,1.9128359 L54.1918013,1.9128359 L54.1918013,3.6294835 C54.0122375,3.08179117 53.6959603,2.64445476 53.2429697,2.31747426 C52.7899792,1.99049377 52.2370042,1.82700352 51.5840448,1.82700352 C50.9882194,1.82700352 50.4576899,1.96597023 49.9924564,2.24390365 C49.5272228,2.52183707 49.1619737,2.92238818 48.896709,3.44555697 C48.6314442,3.96872576 48.4988119,4.58181419 48.4988119,5.28482226 C48.4988119,5.98783032 48.6314442,6.59887512 48.896709,7.11795666 C49.1619737,7.63703819 49.5272228,8.03554567 49.9924564,8.31347909 C50.4576899,8.59141251 50.9882194,8.73037922 51.5840448,8.73037922 Z M51.9023625,7.74943774 C51.2167552,7.74943774 50.6678612,7.53076953 50.2556806,7.09343312 C49.8435,6.65609671 49.6374097,6.05322642 49.6374097,5.28482226 C49.6374097,4.51641809 49.8435,3.9135478 50.2556806,3.47621139 C50.6678612,3.03887498 51.2167552,2.82020677 51.9023625,2.82020677 C52.3431101,2.82020677 52.7369262,2.92034455 53.0838109,3.1206201 C53.4306955,3.32089566 53.7020818,3.60904722 53.8979696,3.98507479 C54.0938574,4.36110236 54.1918013,4.79435151 54.1918013,5.28482226 C54.1918013,5.775293 54.0938574,6.20649853 53.8979696,6.57843884 C53.7020818,6.95037915 53.4306955,7.23853071 53.0838109,7.44289352 C52.7369262,7.64725633 52.3431101,7.74943774 51.9023625,7.74943774 Z M58.1952584,11.8326067 L58.1952584,6.92789924 C58.3666602,7.46741706 58.6788564,7.90270985 59.131847,8.2337776 C59.5848376,8.56484535 60.1378125,8.73037922 60.7907719,8.73037922 C61.3865973,8.73037922 61.9171268,8.59141251 62.3823603,8.31347909 C62.8475939,8.03554567 63.212843,7.63703819 63.4781078,7.11795666 C63.7433725,6.59887512 63.8760049,5.98783032 63.8760049,5.28482226 C63.8760049,4.58181419 63.7433725,3.96872576 63.4781078,3.44555697 C63.212843,2.92238818 62.8475939,2.52183707 62.3823603,2.24390365 C61.9171268,1.96597023 61.3865973,1.82700352 60.7907719,1.82700352 C60.1378125,1.82700352 59.5848376,1.99253739 59.131847,2.32360514 C58.6788564,2.6546729 58.3666602,3.08996568 58.1952584,3.6294835 L58.1952584,3.6294835 L58.1952584,1.9128359 L57.0811465,1.9128359 L57.0811465,11.8326067 L58.1952584,11.8326067 Z M60.4724542,7.74943774 C60.0398686,7.74943774 59.648093,7.64725633 59.2971273,7.44289352 C58.9461617,7.23853071 58.6727349,6.95037915 58.4768471,6.57843884 C58.2809593,6.20649853 58.1830154,5.775293 58.1830154,5.28482226 C58.1830154,4.79435151 58.2809593,4.36110236 58.4768471,3.98507479 C58.6727349,3.60904722 58.9461617,3.32089566 59.2971273,3.1206201 C59.648093,2.92034455 60.0398686,2.82020677 60.4724542,2.82020677 C61.1662235,2.82020677 61.7191985,3.03887498 62.1313791,3.47621139 C62.5435597,3.9135478 62.74965,4.51641809 62.74965,5.28482226 C62.74965,6.05322642 62.5435597,6.65609671 62.1313791,7.09343312 C61.7191985,7.53076953 61.1662235,7.74943774 60.4724542,7.74943774 Z M66.4470324,11.8326067 L66.4470324,6.92789924 C66.6184342,7.46741706 66.9306304,7.90270985 67.383621,8.2337776 C67.8366115,8.56484535 68.3895865,8.73037922 69.0425459,8.73037922 C69.6383713,8.73037922 70.1689008,8.59141251 70.6341343,8.31347909 C71.0993678,8.03554567 71.464617,7.63703819 71.7298817,7.11795666 C71.9951465,6.59887512 72.1277788,5.98783032 72.1277788,5.28482226 C72.1277788,4.58181419 71.9951465,3.96872576 71.7298817,3.44555697 C71.464617,2.92238818 71.0993678,2.52183707 70.6341343,2.24390365 C70.1689008,1.96597023 69.6383713,1.82700352 69.0425459,1.82700352 C68.3895865,1.82700352 67.8366115,1.99253739 67.383621,2.32360514 C66.9306304,2.6546729 66.6184342,3.08996568 66.4470324,3.6294835 L66.4470324,3.6294835 L66.4470324,1.9128359 L65.3329205,1.9128359 L65.3329205,11.8326067 L66.4470324,11.8326067 Z M68.7242282,7.74943774 C68.2916426,7.74943774 67.899867,7.64725633 67.5489013,7.44289352 C67.1979356,7.23853071 66.9245089,6.95037915 66.7286211,6.57843884 C66.5327333,6.20649853 66.4347894,5.775293 66.4347894,5.28482226 C66.4347894,4.79435151 66.5327333,4.36110236 66.7286211,3.98507479 C66.9245089,3.60904722 67.1979356,3.32089566 67.5489013,3.1206201 C67.899867,2.92034455 68.2916426,2.82020677 68.7242282,2.82020677 C69.4179975,2.82020677 69.9709724,3.03887498 70.383153,3.47621139 C70.7953336,3.9135478 71.0014239,4.51641809 71.0014239,5.28482226 C71.0014239,6.05322642 70.7953336,6.65609671 70.383153,7.09343312 C69.9709724,7.53076953 69.4179975,7.74943774 68.7242282,7.74943774 Z M76.3393667,8.73037922 C76.9923261,8.73037922 77.5453011,8.56688898 77.9982916,8.23990848 C78.4512822,7.91292799 78.7675594,7.47559157 78.9471232,6.92789924 L78.9471232,6.92789924 L78.9471232,8.64454684 L80.0612351,8.64454684 L80.0612351,1.9128359 L78.9471232,1.9128359 L78.9471232,3.6294835 C78.7675594,3.08179117 78.4512822,2.64445476 77.9982916,2.31747426 C77.5453011,1.99049377 76.9923261,1.82700352 76.3393667,1.82700352 C75.7435413,1.82700352 75.2130118,1.96597023 74.7477783,2.24390365 C74.2825448,2.52183707 73.9172956,2.92238818 73.6520309,3.44555697 C73.3867661,3.96872576 73.2541338,4.58181419 73.2541338,5.28482226 C73.2541338,5.98783032 73.3867661,6.59887512 73.6520309,7.11795666 C73.9172956,7.63703819 74.2825448,8.03554567 74.7477783,8.31347909 C75.2130118,8.59141251 75.7435413,8.73037922 76.3393667,8.73037922 Z M76.6576844,7.74943774 C75.9720771,7.74943774 75.4231831,7.53076953 75.0110025,7.09343312 C74.5988219,6.65609671 74.3927316,6.05322642 74.3927316,5.28482226 C74.3927316,4.51641809 74.5988219,3.9135478 75.0110025,3.47621139 C75.4231831,3.03887498 75.9720771,2.82020677 76.6576844,2.82020677 C77.098432,2.82020677 77.4922481,2.92034455 77.8391328,3.1206201 C78.1860175,3.32089566 78.4574037,3.60904722 78.6532915,3.98507479 C78.8491793,4.36110236 78.9471232,4.79435151 78.9471232,5.28482226 C78.9471232,5.775293 78.8491793,6.20649853 78.6532915,6.57843884 C78.4574037,6.95037915 78.1860175,7.23853071 77.8391328,7.44289352 C77.4922481,7.64725633 77.098432,7.74943774 76.6576844,7.74943774 Z M83.7463745,11.8326067 L87.7375887,1.9128359 L86.5010469,1.9128359 L84.4809538,7.20991992 L82.3017019,1.9128359 L81.0529172,1.9128359 L83.8810474,8.53419093 L82.4853468,11.8326067 L83.7463745,11.8326067 Z" id="Happay"></path>
            </g>
        </g>
    </g>
</svg>